HIERARCHY
ROOT Hips
{
	OFFSET -0.001795 -0.223333 0.028219
	CHANNELS 6 Xposition Yposition Zposition Zrotation Yrotation Xrotation 
	JOINT LeftUpLeg
	{
		OFFSET 0.069520 -0.091406 -0.006815
		CHANNELS 3 Zrotation Yrotation Xrotation
		JOINT LeftLeg
		{
			OFFSET 0.034277 -0.375199 -0.004496
			CHANNELS 3 Zrotation Yrotation Xrotation
			JOINT LeftFoot
			{
				OFFSET -0.013596 -0.397961 -0.043693
				CHANNELS 3 Zrotation Yrotation Xrotation
				JOINT LeftToe
				{
					OFFSET 0.026358 -0.055791 0.119288
					CHANNELS 3 Zrotation Yrotation Xrotation
					End Site
					{
						OFFSET 0.000000 0.000000 0.000000
					}
				}
			}
		}
	}
	JOINT RightUpLeg
	{
		OFFSET -0.067670 -0.090522 -0.004320
		CHANNELS 3 Zrotation Yrotation Xrotation
		JOINT RightLeg
		{
			OFFSET -0.038290 -0.382569 -0.008850
			CHANNELS 3 Zrotation Yrotation Xrotation
			JOINT RightFoot
			{
				OFFSET 0.015774 -0.398415 -0.042312
				CHANNELS 3 Zrotation Yrotation Xrotation
				JOINT RightToe
				{
					OFFSET -0.025372 -0.048144 0.123348
					CHANNELS 3 Zrotation Yrotation Xrotation
					End Site
					{
						OFFSET 0.000000 0.000000 0.000000
					}
				}
			}
		}
	}
	JOINT Spine
	{
		OFFSET -0.002533 0.108963 -0.026696
		CHANNELS 3 Zrotation Yrotation Xrotation
		JOINT Spine1
		{
			OFFSET 0.005487 0.135180 0.001092
			CHANNELS 3 Zrotation Yrotation Xrotation
			JOINT Spine2
			{
				OFFSET 0.001457 0.052922 0.025425
				CHANNELS 3 Zrotation Yrotation Xrotation
				JOINT Neck
				{
					OFFSET -0.002778 0.213870 -0.042857
					CHANNELS 3 Zrotation Yrotation Xrotation
					JOINT Head
					{
						OFFSET 0.005152 0.064970 0.051349
						CHANNELS 3 Zrotation Yrotation Xrotation
						End Site
						{
							OFFSET 0.000000 0.000000 0.000000
						}
					}
				}
				JOINT LeftShoulder
				{
					OFFSET 0.078845 0.121749 -0.034090
					CHANNELS 3 Zrotation Yrotation Xrotation
					JOINT LeftArm
					{
						OFFSET 0.090977 0.030469 -0.008868
						CHANNELS 3 Zrotation Yrotation Xrotation
						JOINT LeftForeArm
						{
							OFFSET 0.259612 -0.012772 -0.027456
							CHANNELS 3 Zrotation Yrotation Xrotation
							JOINT LeftHand
							{
								OFFSET 0.249234 0.008986 -0.001171
								CHANNELS 3 Zrotation Yrotation Xrotation
								End Site
								{
									OFFSET 0.000000 0.000000 0.000000
								}
							}
						}
					}
				}
				JOINT RightShoulder
				{
					OFFSET -0.081759 0.118833 -0.038615
					CHANNELS 3 Zrotation Yrotation Xrotation
					JOINT RightArm
					{
						OFFSET -0.096012 0.032551 -0.009143
						CHANNELS 3 Zrotation Yrotation Xrotation
						JOINT RightForeArm
						{
							OFFSET -0.253742 -0.013329 -0.021401
							CHANNELS 3 Zrotation Yrotation Xrotation
							JOINT RightHand
							{
								OFFSET -0.255298 0.007772 -0.005559
								CHANNELS 3 Zrotation Yrotation Xrotation
								End Site
								{
									OFFSET 0.000000 0.000000 0.000000
								}
							}
						}
					}
				}
			}
		}
	}
}
MOTION
Frames: 5
Frame Time: 0.050000
-0.846040 0.870289 2.130476 178.480811 24.818438 -172.584533 29.286972 -24.497553 -45.414454 -37.658261 -22.107918 16.601916 50.202364 -21.320856 73.823934 0.000000 0.000000 0.000000 18.964730 -24.279566 -44.365419 -38.861835 -17.947977 44.586786 51.629916 32.442361 9.989698 0.000000 0.000000 0.000000 -49.121932 -28.797436 65.629496 1.177175 -3.243574 -33.935316 26.735261 52.863386 39.891519 15.912732 9.808253 -49.779844 0.000000 0.000000 0.000000 -1.597151 -31.885544 -44.905271 -30.547149 32.436508 -7.860339 -58.107830 -35.528877 11.757085 0.000000 0.000000 0.000000 25.272240 -11.536859 51.534412 17.869083 57.193084 -2.314741 -10.242067 49.842430 -7.550401 0.000000 0.000000 0.000000 
-0.845272 0.870548 2.133629 178.823736 24.268359 -172.427608 34.163853 -25.988344 -47.655436 -43.114582 -25.441286 16.057305 47.085562 -19.286125 81.539666 0.000000 0.000000 0.000000 19.960045 -24.614085 -45.204784 -40.531573 -17.965156 45.287985 55.696861 32.190131 14.532905 0.000000 0.000000 0.000000 -49.637001 -28.692007 65.183746 1.518809 -2.263745 -32.649230 27.358158 52.831641 39.854626 15.014999 9.819107 -50.674578 0.000000 0.000000 0.000000 -0.606491 -30.460962 -46.558367 -30.897012 34.051023 -8.938690 -61.299113 -32.977010 10.867264 0.000000 0.000000 0.000000 24.386276 -12.220683 51.640423 16.445834 56.700437 -2.528626 -9.097442 51.725610 -6.855492 0.000000 0.000000 0.000000 
-0.844869 0.871440 2.133176 178.952137 23.061247 -172.736124 39.765825 -27.619442 -50.281870 -49.293268 -29.860707 15.122591 41.231950 -19.119795 93.039984 0.000000 0.000000 0.000000 18.829468 -24.392513 -43.903422 -40.043946 -18.991078 45.857520 53.282237 31.993613 11.506927 0.000000 0.000000 0.000000 -48.570357 -29.059137 65.216841 0.562808 -2.450084 -32.531247 28.666472 53.042330 39.567943 14.517000 9.832201 -50.001632 0.000000 0.000000 0.000000 -1.037682 -30.430957 -50.762013 -27.073191 37.327315 -7.784145 -64.930362 -29.161571 10.930373 0.000000 0.000000 0.000000 24.404020 -13.442864 52.648208 13.732202 55.658104 -3.873768 -8.747730 54.339845 -6.979472 0.000000 0.000000 0.000000 
-0.845107 0.871728 2.129153 178.660304 21.295089 -173.885751 42.989467 -28.379324 -50.573768 -52.956045 -33.847779 13.565043 37.812419 -20.061812 100.111279 0.000000 0.000000 0.000000 15.929782 -23.966876 -40.969705 -41.412436 -20.899168 48.056427 59.800639 31.437064 14.647381 0.000000 0.000000 0.000000 -49.817277 -29.434551 65.850456 1.430805 -1.727279 -31.541040 28.657896 53.673458 40.219618 14.945735 9.564409 -48.975902 0.000000 0.000000 0.000000 -0.968764 -29.682515 -55.038819 -23.643482 40.087346 -6.630262 -67.963475 -25.479093 10.685095 0.000000 0.000000 0.000000 25.007387 -13.725537 55.766573 7.022733 55.155526 -7.472462 -12.517626 55.652724 -10.088826 0.000000 0.000000 0.000000 
-0.846378 0.871144 2.122022 179.162435 20.287106 -174.264059 45.343317 -28.974813 -50.842379 -53.664768 -34.531763 12.955671 32.843045 -22.113344 105.198439 0.000000 0.000000 0.000000 14.705926 -23.398475 -39.320837 -40.466748 -22.115740 48.602705 56.098564 31.213324 10.754074 0.000000 0.000000 0.000000 -48.814219 -29.450983 64.970918 1.483952 -1.564597 -31.384505 29.439864 54.043249 40.786013 15.067385 9.448567 -49.360714 0.000000 0.000000 0.000000 0.031221 -30.645528 -59.708246 -20.033007 42.545188 -5.181351 -68.810022 -20.811331 8.492728 0.000000 0.000000 0.000000 24.453028 -14.125399 59.604126 0.400073 55.453857 -10.445293 -18.701220 54.859654 -13.763175 0.000000 0.000000 0.000000 
